PathFileType	4	(X/Y/Z)	C:/Users/opensim2020/Desktop/walking_exp_matlab/subject03_walking14_straight_02.trc																																																																																																																																											
DataRate	CameraRate	NumFrames	NumMarkers	Units	OrigDataRate	OrigDataStartFrame	OrigNumFrames																																																																																																																																							
100	100	6	47	mm	100	1170	168																																																																																																																																							
Frame#	Time	LFHD			RFHD			LBHD			RBHD			C7			T10			CLAV			STRN			RBAK			LSHO			LUPA			LELB			LFRM			LWRA			LWRB			LFIN			RSHO			RUPA			RELB			RFRM			RWRA			RWRB			RFIN			LASI			RASI			LPSI			RPSI			LTHI			LKNE			LTIB			LANK			LHEE			LTOE			RTHI			RKNE			RTIB			RANK			RHEE			RTOE			*39			*40			*41			*42			*43			*44			*45			*46		
		X1	Y1	Z1	X2	Y2	Z2	X3	Y3	Z3	X4	Y4	Z4	X5	Y5	Z5	X6	Y6	Z6	X7	Y7	Z7	X8	Y8	Z8	X9	Y9	Z9	X10	Y10	Z10	X11	Y11	Z11	X12	Y12	Z12	X13	Y13	Z13	X14	Y14	Z14	X15	Y15	Z15	X16	Y16	Z16	X17	Y17	Z17	X18	Y18	Z18	X19	Y19	Z19	X20	Y20	Z20	X21	Y21	Z21	X22	Y22	Z22	X23	Y23	Z23	X24	Y24	Z24	X25	Y25	Z25	X26	Y26	Z26	X27	Y27	Z27	X28	Y28	Z28	X29	Y29	Z29	X30	Y30	Z30	X31	Y31	Z31	X32	Y32	Z32	X33	Y33	Z33	X34	Y34	Z34	X35	Y35	Z35	X36	Y36	Z36	X37	Y37	Z37	X38	Y38	Z38	X39	Y39	Z39	X40	Y40	Z40	X41	Y41	Z41	X42	Y42	Z42	X43	Y43	Z43	X44	Y44	Z44	X45	Y45	Z45	X46	Y46	Z46	X47	Y47	Z47
																																																																																																																																														
127	1.26	460.48019	1630.01453	915.17188	454.37726	1636.37024	1047.79285	338.18387	1572.99426	916.34454	337.05432	1579.08984	1046.64429	320.0578	1415.52576	980.67175	300.58237	1103.28967	979.26709	446.61777	1347.06958	976.66827	499.18454	1184.53003	970.09106	280.12259	1239.64929	1078.17981	390.71021	1383.16101	822.30322	383.94272	1186.21216	750.69012	402.24481	1064.18457	741.0592	463.62372	951.0462	749.16016	523.44556	852.26068	788.67834	496.33951	841.46307	741.18573	544.44513	774.49426	755.09833	404.94275	1367.36157	1137.81702	429.39987	1146.1427	1211.62036	456.24948	1036.31104	1224.16125	481.28091	901.48358	1229.4397	511.29221	805.75092	1194.4646	486.7045	801.82446	1243.05286	511.16577	730.68073	1233.66223	468.05984	943.26416	864.59503	467.77338	946.63251	1100.02234	306.29669	958.98462	911.97137	307.95197	975.1994	1060.4812	492.58887	647.3208	812.76251	558.84454	481.70627	840.73065	478.19223	297.65854	840.32379	413.06345	99.36029	879.76306	364.27771	73.27301	918.43201	547.00183	36.94984	900.37598	400.02209	648.52472	1134.87488	396.93167	470.74582	1093.54114	333.09076	287.93384	1091.03662	287.8512	77.11301	1034.58032	242.46669	50.63613	982.51227	427.9505	31.31488	1019.47491	370.57498	1680.83813	963.16217	NaN	NaN	NaN	NaN	NaN	NaN	NaN	NaN	NaN	NaN	NaN	NaN	NaN	NaN	NaN	NaN	NaN	NaN	NaN	NaN	NaN
128	1.27	472.01816	1629.25195	914.88507	465.93866	1635.87817	1047.49121	349.88351	1572.06274	916.00623	348.57516	1578.5614	1046.44128	331.66513	1414.83301	980.51727	312.35287	1102.55164	978.55194	458.1734	1346.40967	976.90582	510.80942	1183.87671	970.68085	291.48462	1239.05322	1078.16992	402.63443	1382.29333	822.30908	394.79962	1185.16394	751.10004	411.61127	1062.65234	741.52527	469.05988	947.07825	748.76862	524.98285	845.63379	787.28485	497.33273	836.28827	739.77075	542.89063	767.46857	753.02148	416.09836	1366.76074	1137.75745	444.64401	1146.64355	1212.47021	474.45419	1037.68506	1225.66846	503.79758	903.65112	1231.14795	537.0011	809.073	1196.38953	512.35638	804.32947	1244.85962	539.30499	734.10461	1235.57007	481.05502	942.87677	865.15424	478.14471	945.86316	1100.54358	318.74133	958.38025	910.74097	318.81021	974.70758	1059.31738	507.76703	647.63416	813.23975	573.91693	482.19803	842.64172	503.58472	293.67343	841.97382	453.026	91.05072	881.24292	407.10269	61.11081	920.46735	590.88336	37.64658	902.66266	405.98465	648.40448	1134.72192	400.52591	470.40759	1093.7572	334.89511	288.51358	1091.01672	288.05853	77.8444	1034.53394	242.70363	51.67683	982.21008	428.07773	31.28486	1019.71228	382.24677	1680.5863	962.31329	NaN	NaN	NaN	NaN	NaN	NaN	NaN	NaN	NaN	NaN	NaN	NaN	NaN	NaN	NaN	NaN	NaN	NaN	NaN	NaN	NaN
129	1.28	483.53787	1628.26025	914.6153	477.48834	1635.09521	1047.11023	361.36597	1571.15503	915.96143	360.12436	1577.79602	1046.29199	343.25156	1413.94617	980.45111	324.14886	1101.61548	977.86743	469.76218	1345.49719	977.14478	522.52332	1182.97522	971.33307	302.77341	1238.10327	1078.03748	414.79898	1381.19751	822.23785	405.73376	1183.77197	751.59497	420.98581	1060.92041	741.97626	474.54526	943.03809	748.38123	526.21619	839.02924	785.89703	497.85818	831.12085	738.5	540.99829	760.48651	750.98157	427.21448	1365.97412	1137.74524	459.74368	1146.95203	1213.33484	492.41345	1038.96167	1227.15015	526.14209	905.95435	1232.79358	562.64752	812.57104	1198.27795	537.92255	806.96649	1246.47131	567.29633	737.7583	1237.28967	494.25549	942.15387	865.67889	488.38269	944.79169	1101.03491	331.28595	957.56262	909.50256	329.65378	973.89893	1057.98853	522.54791	647.53809	813.71283	587.75439	481.95367	844.65997	528.66968	290.08923	843.63275	492.92874	84.1701	882.64246	449.70914	51.20411	922.76416	633.86816	38.61219	905.10315	412.38333	648.02368	1134.58472	404.99673	469.90689	1094.01648	337.21527	288.89124	1090.95752	288.34781	78.4949	1034.39197	242.93863	52.65547	981.96198	428.15265	31.30933	1020.0686	393.68396	1679.71167	962.11725	NaN	NaN	NaN	NaN	NaN	NaN	NaN	NaN	NaN	NaN	NaN	NaN	NaN	NaN	NaN	NaN	NaN	NaN	NaN	NaN	NaN
130	1.29	495.06558	1627.06787	914.29089	488.9696	1634.18445	1046.85999	372.9007	1569.72009	915.62671	371.64972	1576.69629	1045.95007	354.99921	1412.64746	980.07599	335.95023	1100.3894	976.94983	481.45261	1344.33179	977.37952	534.27814	1181.85107	972.05597	314.00296	1236.88574	1077.68738	426.9913	1379.87207	822.23846	417.07397	1182.12817	751.93951	430.745	1058.92627	742.09283	480.04468	938.95538	747.89459	527.35004	832.49792	784.39838	498.92068	826.20721	736.89978	538.8205	753.66498	748.88776	438.12469	1364.9364	1137.75916	474.59	1147.11536	1214.16565	510.12711	1040.09485	1228.6001	548.19232	908.38733	1234.43835	588.14673	816.28308	1200.00684	563.2926	809.75446	1247.93506	595.0766	741.6546	1238.81665	507.80792	941.20123	866.16711	498.61411	943.49237	1101.62439	343.96472	956.44153	908.03162	340.45261	972.76172	1056.52686	536.81458	646.92999	814.21301	601.10663	481.42856	846.59454	553.44946	286.77603	845.21191	533.72888	78.28847	884.29877	491.71011	43.23967	923.98645	676.45239	40.28435	907.40857	419.22397	647.40686	1134.42859	409.9729	469.20645	1094.02637	339.99731	289.03925	1090.76135	288.65857	79.23668	1034.22754	243.1712	53.65478	981.65369	428.28064	31.02804	1019.98981	405.27924	1678.39282	961.13776	NaN	NaN	NaN	NaN	NaN	NaN	NaN	NaN	NaN	NaN	NaN	NaN	NaN	NaN	NaN	NaN	NaN	NaN	NaN	NaN	NaN
131	1.3	506.62427	1625.67834	914.00159	500.33765	1633.09949	1046.48938	384.47153	1568.17102	915.32739	383.18124	1575.40796	1045.71204	366.80188	1411.32751	979.78644	347.87784	1098.95984	975.89447	493.13452	1342.95337	977.72894	546.09943	1180.50317	972.84686	325.16489	1235.42456	1077.25769	439.42551	1378.29688	822.14258	428.52274	1180.27551	752.30627	440.9682	1057.0481	742.5824	485.57205	934.8916	747.37402	528.65112	826.20111	782.67291	499.88239	821.55182	735.11932	536.45111	747.06128	746.73499	449.05151	1363.63367	1137.78101	489.22488	1147.06934	1214.9209	527.57007	1041.13953	1229.9856	570.03802	910.68311	1235.85291	613.53967	820.21777	1201.58618	588.44501	812.69861	1249.20984	622.63141	745.81342	1240.14392	521.10315	939.73724	866.8045	508.70856	941.94232	1102.18921	356.78995	955.24408	906.59308	351.21127	971.37396	1055.02515	550.41736	645.61365	814.77753	613.80707	480.28766	848.42487	577.89465	283.65356	846.7677	573.23767	74.15453	885.60046	532.97241	37.40395	924.72864	718.09497	43.24569	909.60938	426.358	646.86139	1134.19885	415.71823	468.39539	1094.01978	343.17795	289.0907	1090.46472	289.16348	79.91858	1033.91272	243.48692	54.72488	981.29712	428.36694	30.97389	1020.01642	416.47723	1680.2334	958.59186	NaN	NaN	NaN	NaN	NaN	NaN	NaN	NaN	NaN	NaN	NaN	NaN	NaN	NaN	NaN	NaN	NaN	NaN	NaN	NaN	NaN
132	1.31	518.20447	1624.10803	913.65283	511.80466	1631.80444	1046.16345	396.04968	1566.47827	915.23865	394.73019	1573.88025	1045.32458	378.63498	1409.77722	979.33783	359.79047	1097.37817	974.71259	504.91095	1341.40454	978.01514	557.87781	1178.90771	973.69055	336.39911	1233.72986	1076.52917	452.10693	1376.51514	822.0332	440.31873	1178.20032	752.53491	450.87317	1054.60388	742.77087	491.12546	930.81268	746.78088	529.39557	819.86639	781.17426	501.1637	817.17657	733.09729	533.92902	740.74042	744.46521	459.94238	1362.07043	1137.75732	503.60007	1146.83105	1215.68335	544.75354	1042.05261	1231.25452	591.53448	913.12024	1237.20398	638.41919	824.31097	1202.96289	613.38348	815.75031	1250.28564	649.91522	750.28436	1241.35693	534.77057	937.99939	867.39832	518.75061	940.19244	1102.82874	369.75027	953.75879	904.8891	361.96796	969.75781	1053.32153	563.24219	643.70087	815.38147	626.05481	478.53397	850.24915	601.73651	280.97803	848.50787	611.93506	71.56087	886.65967	574.04962	32.89279	925.97107	758.64301	47.65392	911.24835	434.12738	645.89313	1134.02954	421.70975	467.54214	1093.83618	346.69855	289.08786	1090.09631	289.77435	80.65587	1033.47949	243.81798	55.93364	980.78021	428.46442	30.9799	1020.01569	428.1109	1675.40405	960.11353	NaN	NaN	NaN	NaN	NaN	NaN	NaN	NaN	NaN	NaN	NaN	NaN	NaN	NaN	NaN	NaN	NaN	NaN	NaN	NaN	NaN
